<svg xmlns="http://www.w3.org/2000/svg" width="19.5" height="22.286" viewBox="0 0 19.5 22.286">
    <path data-name="Icon awesome-bell" d="M9.75 22.286a2.785 2.785 0 0 0 2.784-2.786H6.966a2.785 2.785 0 0 0 2.784 2.786zm9.375-6.516c-.841-.9-2.414-2.263-2.414-6.716A6.874 6.874 0 0 0 11.142 2.3v-.907a1.392 1.392 0 1 0-2.784 0V2.3a6.874 6.874 0 0 0-5.569 6.754c0 4.453-1.573 5.812-2.414 6.716a1.36 1.36 0 0 0-.375.944 1.394 1.394 0 0 0 1.4 1.393h16.7a1.394 1.394 0 0 0 1.4-1.393 1.359 1.359 0 0 0-.375-.945z" style="fill:#fff"/>
</svg>
