<svg width="287" height="60" fill="none" xmlns="http://www.w3.org/2000/svg">
    <g clip-path="url(#a)" fill="#DDD">
        <path d="M69.022 1.438h5.412v21.697h-5.412V1.438zM78.96 21.707c-1.217-1.197-1.83-3.189-1.83-5.955a10.78 10.78 0 0 1 1.006-4.838 6.93 6.93 0 0 1 2.726-3.018 7.795 7.795 0 0 1 4.023-1.006 7.614 7.614 0 0 1 4.023 1.087V.433h5.372v22.702h-4.577l-.302-1.348a6.91 6.91 0 0 1-2.203 1.348 8.326 8.326 0 0 1-2.766.422 7.493 7.493 0 0 1-5.472-1.85zm10.059-3.35V11.87a4.124 4.124 0 0 0-2.907-1.005 2.947 2.947 0 0 0-2.625 1.257 6.557 6.557 0 0 0-.875 3.671 4.194 4.194 0 0 0 .794 3.018 3.51 3.51 0 0 0 2.565.795 4.136 4.136 0 0 0 2.998-1.248h.05zM99.52 21.395a7.806 7.806 0 0 1-2.454-6.216 8.53 8.53 0 0 1 2.122-6.126 9.615 9.615 0 0 1 11.96-.252 6.839 6.839 0 0 1 2.092 5.281v2.877h-11.205a3.13 3.13 0 0 0 1.67 2.152 8.773 8.773 0 0 0 3.742.634c.886.002 1.772-.076 2.645-.231a11.588 11.588 0 0 0 2.253-.604v3.54a14.935 14.935 0 0 1-6.136 1.007 9.917 9.917 0 0 1-6.689-2.062zm9.053-7.595v-.724c0-1.71-1.006-2.565-3.017-2.565a3.772 3.772 0 0 0-2.686.775 3.412 3.412 0 0 0-.785 2.504l6.488.01zM116.892 22.22a4.546 4.546 0 0 1-1.58-3.732 4.77 4.77 0 0 1 1.68-3.883 7.586 7.586 0 0 1 4.919-1.388h4.406v-.362a1.92 1.92 0 0 0-.815-1.76 6.23 6.23 0 0 0-3.018-.503c-1.8 0-3.59.285-5.301.845v-3.51a15.706 15.706 0 0 1 2.897-.785 20.12 20.12 0 0 1 3.511-.302 9.362 9.362 0 0 1 5.793 1.56 5.631 5.631 0 0 1 2.012 4.787v9.948h-4.657l-.262-1.348c-1.227 1.127-3.078 1.69-5.572 1.69a6.154 6.154 0 0 1-4.013-1.257zm9.425-3.601v-2.253h-3.803a2.745 2.745 0 0 0-1.78.472 1.74 1.74 0 0 0-.583 1.449c0 1.257.824 1.89 2.464 1.89a4.558 4.558 0 0 0 3.702-1.558zM135.792 22.37a5.09 5.09 0 0 1-1.137-3.68V.432h5.372v17.673c-.045.381.063.765.301 1.066a1.38 1.38 0 0 0 1.006.292 4.86 4.86 0 0 0 1.6-.242v3.682a8.854 8.854 0 0 1-1.549.442c-.603.092-1.212.135-1.821.131a5.1 5.1 0 0 1-3.772-1.106zM69.022 30.981h9.305c3.353 0 5.87.865 7.554 2.596 1.68 1.73 2.525 4.536 2.525 8.399 0 3.674-.842 6.383-2.525 8.127-1.683 1.743-4.201 2.615-7.554 2.615h-9.305V30.981zm8.57 17.543a7.042 7.042 0 0 0 3.018-.533 3.622 3.622 0 0 0 1.73-2.012 10.71 10.71 0 0 0 .604-4.023 12.14 12.14 0 0 0-.554-4.135 3.66 3.66 0 0 0-1.7-2.072 6.689 6.689 0 0 0-3.087-.603h-3.169v13.378h3.158zM91.131 30.981h15.843v4.225H96.503v4.557h9.244v4.244h-9.244v4.557h10.471v4.194H91.131V30.981zM108.04 30.981h5.623l5.472 15.521 5.502-15.52h5.633l-8.198 21.736h-5.804l-8.228-21.737zM132.986 30.981h15.882v4.225h-10.511v4.557h9.234v4.244h-9.234v4.557h10.511v4.194h-15.882V30.981zM151.393 30.981h5.371v17.543h10.14v4.194h-15.511V30.981zM169.036 44.71a8.24 8.24 0 0 1 2.223-6.196c1.479-1.418 3.702-2.142 6.679-2.142 2.977 0 5.241.714 6.719 2.133a8.204 8.204 0 0 1 2.223 6.206c0 5.559-2.981 8.338-8.942 8.338s-8.929-2.78-8.902-8.338zm11.578 3.139a4.849 4.849 0 0 0 .794-3.138 4.807 4.807 0 0 0-.815-3.139 3.355 3.355 0 0 0-2.655-.945 3.25 3.25 0 0 0-2.635 1.006 4.88 4.88 0 0 0-.795 3.118 4.844 4.844 0 0 0 .795 3.138 3.28 3.28 0 0 0 2.635.946 3.331 3.331 0 0 0 2.676-.986zM189.616 36.714h4.667l.262 1.388a7.532 7.532 0 0 1 4.969-1.73c4.868 0 7.302 2.682 7.302 8.047 0 2.836-.67 4.989-2.012 6.458a7.127 7.127 0 0 1-5.572 2.212 8.25 8.25 0 0 1-4.265-1.005v7.996h-5.371l.02-23.366zm10.853 11.135a6.03 6.03 0 0 0 .885-3.571 4.563 4.563 0 0 0-.784-3.038 3.405 3.405 0 0 0-2.585-.845 4.275 4.275 0 0 0-3.018 1.217V48.1c.4.309.84.563 1.308.755.509.18 1.048.266 1.589.251a3.017 3.017 0 0 0 2.605-1.257zM209.552 36.715h4.969l.171 1.418a8.76 8.76 0 0 1 5.271-1.76 5.392 5.392 0 0 1 2.444.472c.605.315 1.11.792 1.458 1.378a10.12 10.12 0 0 1 2.585-1.368 9.491 9.491 0 0 1 3.149-.492 5.24 5.24 0 0 1 4.023 1.458 6.394 6.394 0 0 1 1.348 4.426v10.47h-5.301v-9.826a2.799 2.799 0 0 0-.553-1.911 2.368 2.368 0 0 0-1.79-.584 3.51 3.51 0 0 0-1.509.322c-.468.203-.884.509-1.217.895.076.503.11 1.01.1 1.519v9.586h-5.029V42.82a3.075 3.075 0 0 0-.433-1.85 1.856 1.856 0 0 0-1.569-.574 4.285 4.285 0 0 0-2.897 1.448v10.874h-5.24l.02-16.003zM239.99 50.927a7.759 7.759 0 0 1-2.455-6.216 8.483 8.483 0 0 1 2.123-6.126 9.605 9.605 0 0 1 11.95-.252 6.852 6.852 0 0 1 2.102 5.271v2.867h-11.206a3.104 3.104 0 0 0 1.67 2.193 8.733 8.733 0 0 0 3.732.643 15.146 15.146 0 0 0 2.655-.241 11.063 11.063 0 0 0 2.254-.604v3.541a14.99 14.99 0 0 1-6.146 1.006 9.838 9.838 0 0 1-6.679-2.082zm9.053-7.594v-.715c0-1.71-1.006-2.565-3.068-2.565a3.772 3.772 0 0 0-2.686.775 3.435 3.435 0 0 0-.785 2.505h6.539zM256.496 36.714h5.029l.171 1.388a9.163 9.163 0 0 1 2.515-1.237 9.817 9.817 0 0 1 3.018-.493 5.927 5.927 0 0 1 4.456 1.489 6.462 6.462 0 0 1 1.418 4.587v10.27h-5.371V42.89a2.62 2.62 0 0 0-.584-1.921 2.826 2.826 0 0 0-2.012-.573 4.266 4.266 0 0 0-1.77.402 4.694 4.694 0 0 0-1.499 1.006v10.913h-5.371V36.715zM278.504 51.56a5.857 5.857 0 0 1-1.418-4.214v-6.518h-2.132v-4.114h2.132v-3.34l5.371-1.448v4.788h3.833l-.232 4.114h-3.601v6.146a2.015 2.015 0 0 0 .533 1.599 2.598 2.598 0 0 0 1.731.463 6.03 6.03 0 0 0 2.011-.342v3.681a9.831 9.831 0 0 1-3.902.674 5.647 5.647 0 0 1-4.326-1.489zM24.352 27.46a2.353 2.353 0 0 0-1.9.916 3.631 3.631 0 0 0-.745 2.404c-.038.866.224 1.72.744 2.414a2.383 2.383 0 0 0 1.901.885 2.324 2.324 0 0 0 1.871-.885c.53-.694.797-1.553.755-2.424a3.58 3.58 0 0 0-.755-2.404 2.293 2.293 0 0 0-1.87-.906z"/>
        <path d="M28.707 0a28.718 28.718 0 1 0 28.718 28.707A28.708 28.708 0 0 0 28.707 0zM10.732 34.783l-1.619 1.539-6.92-6.538 6.92-6.549 1.62 1.54-5.271 5.029 5.27 4.979zm5.865 1.71H13.81V25.147h2.787v11.346zm-.393-13.016a1.316 1.316 0 0 1-1.006.412 1.338 1.338 0 0 1-1.005-.412 1.448 1.448 0 0 1-.383-1.006 1.418 1.418 0 0 1 1.106-1.418 1.388 1.388 0 0 1 1.68 1.418c0 .373-.14.732-.392 1.006zm13.73 13.016H27.45v-1.418a3.69 3.69 0 0 1-3.148 1.418 4.88 4.88 0 0 1-2.596-.704 4.748 4.748 0 0 1-1.8-2.012 7.102 7.102 0 0 1 0-6.035 4.748 4.748 0 0 1 1.8-2.012 4.968 4.968 0 0 1 2.596-.704 5.532 5.532 0 0 1 3.017.915v-4.898h2.626l-.01 15.45zm9.838 0h-2.957L32.66 24.925h2.958l2.735 7.876 2.887-7.876h2.756l-4.224 11.568zm8.45-.171-1.62-1.54 5.28-5.028-5.28-5.03 1.62-1.539 6.92 6.548-6.92 6.589z"/>
    </g>
    <defs>
        <clipPath id="a">
            <path fill="#fff" d="M0 0h286.692v60H0z"/>
        </clipPath>
    </defs>
</svg>
