<svg width="60" height="60" fill="none" xmlns="http://www.w3.org/2000/svg">
    <circle cx="30" cy="30" r="30" fill="#2C292D"/>
    <path d="M19.835 27.327v9.684h-2.808v-9.684h2.808zM18.43 25.977c-.515 0-.935-.15-1.26-.45a1.46 1.46 0 0 1-.485-1.116c0-.444.162-.816.486-1.116.324-.3.744-.45 1.26-.45s.936.144 1.26.432c.324.288.486.648.486 1.08 0 .468-.162.858-.486 1.17-.324.3-.744.45-1.26.45z" fill="#fff"/>
    <path fill-rule="evenodd" clip-rule="evenodd" d="M32.305 37.01V23.656h-2.808v4.698c-.696-.78-1.662-1.17-2.898-1.17-.912 0-1.74.204-2.484.612a4.399 4.399 0 0 0-1.728 1.746c-.42.756-.63 1.632-.63 2.628 0 .996.21 1.872.63 2.628.42.756.996 1.338 1.728 1.746.744.408 1.572.612 2.484.612 1.32 0 2.328-.42 3.024-1.26v1.116h2.682zm-3.456-2.88c-.468.48-1.056.72-1.764.72-.72 0-1.314-.24-1.782-.72-.468-.491-.702-1.145-.702-1.961 0-.816.234-1.464.702-1.944.468-.492 1.062-.738 1.782-.738.708 0 1.296.246 1.764.738.468.48.702 1.128.702 1.944 0 .816-.234 1.47-.702 1.962z" fill="#AB9DF2"/>
    <path d="M44.516 27.327 40.43 37.01h-2.898l-4.068-9.684h2.898l2.682 6.588 2.772-6.588h2.7z" fill="#AB9DF2"/>
    <path d="m48.82 24-1.41 1.41L51.99 30l-4.58 4.59L48.82 36l6-6-6-6zM11.18 24l1.41 1.41L8.01 30l4.58 4.59L11.18 36l-6-6 6-6z" fill="#908E8F"/>
</svg>
